# xmcd CD database file
#
# Track frame offsets:
#	150
#	21622
#	42763
#	59937
#	81776
#	98824
#	117922
#	133474
#	151868
#	166013
#	184580
#	199121
#	219312
#	236305
#
# Disc length: 3435 seconds
#
# Revision: 0
# Processed by: cddbd v1.5.2PL0 Copyright (c) Steve Scherf et al.
# Submitted via: CDex 1.51
#
DISCID=be0d690e
DTITLE=Bandari - Relaxation - Fortune
DYEAR=2004
DGENRE=New Age
TTITLE0=Into The West
TTITLE1=The Stars Above
TTITLE2=Theme Of Universe
TTITLE3=Snowdreams
TTITLE4=Summer Feelings
TTITLE5=China Roses
TTITLE6=Big Big World
TTITLE7=Silver Bird
TTITLE8=Amarantine
TTITLE9=Little Mermaid
TTITLE10=Childhood Memory
TTITLE11=Excalibur
TTITLE12=Beyond The Clouds
TTITLE13=You Are Not Alone
EXTD=YEAR: 2004
EXTT0=
EXTT1=
EXTT2=
EXTT3=
EXTT4=
EXTT5=
EXTT6=
EXTT7=
EXTT8=
EXTT9=
EXTT10=
EXTT11=
EXTT12=
EXTT13=
PLAYORDER=
